ffmpeg started on 2026-01-13 at 10:08:50
Report written to "D:\Convert\FFMetrics\reports\ssim_report-6.txt"
Log level: 32
Command line:
ffmpeg -hide_banner -nostdin -r 24000/1001 -i "F:\\Convert\\files\\[DC] Make Heroine ga Oosugiru - 07_Telegram_HEVC(111).mkv" -r 24000/1001 -i "F:\\Convert\\files\\[DC] Make Heroine ga Oosugiru - 07_Telegram.mp4" -lavfi "[0:v]settb=AVTB,setpts=PTS-STARTPTS,format=pix_fmts=yuv420p10le,fps=24000/1001,scale=1920:1080:flags=lanczos:param0=3:out_range=limited:out_color_matrix=bt709:out_chroma_loc=left,setsar=1/1,setdar=(1920/1080)*(1/1),colorspace=format=yuv420p10:range=tv:primaries=bt709:trc=bt709:space=bt709:fast=0[main];[1:v]settb=AVTB,setpts=PTS-STARTPTS,format=pix_fmts=yuv420p,fps=24000/1001,scale=1920:1080:flags=lanczos:param0=3:out_range=limited:out_color_matrix=bt709:out_chroma_loc=left,setsar=1.000,setdar=1.778,colorspace=format=yuv420p:range=tv:primaries=bt709:trc=bt709:space=bt709:fast=0[ref];[main][ref]ssim=eof_action=endall:stats_file='D\\:/Convert/FFMetrics/logs/ssim_logfile-6.txt'" -f null -
Input #0, matroska,webm, from 'F:\Convert\files\[DC] Make Heroine ga Oosugiru - 07_Telegram_HEVC(111).mkv':
  Metadata:
    COMPATIBLE_BRANDS: isomiso2avc1mp41
    MAJOR_BRAND     : isom
    MINOR_VERSION   : 512
    ENCODER         : Lavf61.7.100
  Duration: 00:24:06.79, start: -0.021000, bitrate: 969 kb/s
  Stream #0:0: Video: hevc (Main 10), yuv420p10le(tv, bt709, progressive), 1920x1080 [SAR 1:1 DAR 16:9], 23.98 fps, 23.98 tbr, 1k tbn (default)
      Metadata:
        HANDLER_NAME    : VideoHandler
        VENDOR_ID       : [0][0][0][0]
        ENCODER         : Lavc61.19.100 libx265
        BPS             : 772150
        DURATION        : 00:24:06.569708333
        NUMBER_OF_FRAMES: 34683
        NUMBER_OF_BYTES : 139621189
        _STATISTICS_WRITING_APP: mkvpropedit v94.0 ('Initiate') 64-bit
        _STATISTICS_WRITING_DATE_UTC: 2026-01-12 13:56:35
        _STATISTICS_TAGS: BPS DURATION NUMBER_OF_FRAMES NUMBER_OF_BYTES
  Stream #0:1: Audio: aac (LC), 48000 Hz, stereo, fltp (default)
      Metadata:
        HANDLER_NAME    : SoundHandler
        VENDOR_ID       : [0][0][0][0]
        ENCODER         : Lavc61.19.100 aac
        BPS             : 193194
        DURATION        : 00:24:06.784000000
        NUMBER_OF_FRAMES: 67819
        NUMBER_OF_BYTES : 34938755
        _STATISTICS_WRITING_APP: mkvpropedit v94.0 ('Initiate') 64-bit
        _STATISTICS_WRITING_DATE_UTC: 2026-01-12 13:56:35
        _STATISTICS_TAGS: BPS DURATION NUMBER_OF_FRAMES NUMBER_OF_BYTES
Input #1, mov,mp4,m4a,3gp,3g2,mj2, from 'F:\Convert\files\[DC] Make Heroine ga Oosugiru - 07_Telegram.mp4':
  Metadata:
    major_brand     : isom
    minor_version   : 512
    compatible_brands: isomiso2avc1mp41
    encoder         : Lavf60.16.100
  Duration: 00:24:06.74, start: 0.000000, bitrate: 3764 kb/s
  Stream #1:0[0x1](und): Video: h264 (High) (avc1 / 0x31637661), yuv420p(tv, bt709, progressive), 1920x1080 [SAR 1:1 DAR 16:9], 3616 kb/s, 23.98 fps, 23.98 tbr, 24k tbn (default)
      Metadata:
        handler_name    : VideoHandler
        vendor_id       : [0][0][0][0]
        encoder         : Lavc60.31.102 h264_qsv
  Stream #1:1[0x2](und): Audio: aac (HE-AACv2) (mp4a / 0x6134706D), 48000 Hz, stereo, fltp, 144 kb/s (default)
      Metadata:
        handler_name    : SoundHandler
        vendor_id       : [0][0][0][0]
Stream mapping:
  Stream #0:0 (hevc) -> settb:default
  Stream #1:0 (h264) -> settb:default
  ssim:default -> Stream #0:0 (wrapped_avframe)
  Stream #0:1 -> #0:1 (aac (native) -> pcm_s16le (native))
Output #0, null, to 'pipe:':
  Metadata:
    COMPATIBLE_BRANDS: isomiso2avc1mp41
    MAJOR_BRAND     : isom
    MINOR_VERSION   : 512
    encoder         : Lavf61.7.100
  Stream #0:0: Video: wrapped_avframe, yuv420p10le(tv, bt709, progressive), 1920x1080 [SAR 1:1 DAR 16:9], q=2-31, 200 kb/s, 23.98 fps, 23.98 tbn
      Metadata:
        encoder         : Lavc61.19.100 wrapped_avframe
  Stream #0:1: Audio: pcm_s16le, 48000 Hz, stereo, s16, 1536 kb/s (default)
      Metadata:
        HANDLER_NAME    : SoundHandler
        VENDOR_ID       : [0][0][0][0]
        _STATISTICS_TAGS: BPS DURATION NUMBER_OF_FRAMES NUMBER_OF_BYTES
        BPS             : 193194
        DURATION        : 00:24:06.784000000
        NUMBER_OF_FRAMES: 67819
        NUMBER_OF_BYTES : 34938755
        _STATISTICS_WRITING_APP: mkvpropedit v94.0 ('Initiate') 64-bit
        _STATISTICS_WRITING_DATE_UTC: 2026-01-12 13:56:35
        encoder         : Lavc61.19.100 pcm_s16le
frame=  120 fps=0.0 q=-0.0 size=N/A time=00:00:05.00 bitrate=N/A speed=9.72x    frame=  298 fps=291 q=-0.0 size=N/A time=00:00:12.42 bitrate=N/A speed=12.1x    frame=  503 fps=324 q=-0.0 size=N/A time=00:00:20.97 bitrate=N/A speed=13.5x    frame=  696 fps=338 q=-0.0 size=N/A time=00:00:29.02 bitrate=N/A speed=14.1x    frame=  878 fps=341 q=-0.0 size=N/A time=00:00:36.61 bitrate=N/A speed=14.2x    frame= 1018 fps=328 q=-0.0 size=N/A time=00:00:42.45 bitrate=N/A speed=13.7x    frame= 1175 fps=325 q=-0.0 size=N/A time=00:00:49.00 bitrate=N/A speed=13.6x    frame= 1327 fps=322 q=-0.0 size=N/A time=00:00:55.34 bitrate=N/A speed=13.4x    frame= 1489 fps=321 q=-0.0 size=N/A time=00:01:02.10 bitrate=N/A speed=13.4x    frame= 1627 fps=316 q=-0.0 size=N/A time=00:01:07.85 bitrate=N/A speed=13.2x    frame= 1780 fps=314 q=-0.0 size=N/A time=00:01:14.24 bitrate=N/A speed=13.1x    frame= 1947 fps=314 q=-0.0 size=N/A time=00:01:21.20 bitrate=N/A speed=13.1x    frame= 2079 fps=310 q=-0.0 size=N/A time=00:01:26.71 bitrate=N/A speed=12.9x    frame= 2215 fps=307 q=-0.0 size=N/A time=00:01:32.38 bitrate=N/A speed=12.8x    frame= 2363 fps=306 q=-0.0 size=N/A time=00:01:38.55 bitrate=N/A speed=12.8x    frame= 2502 fps=303 q=-0.0 size=N/A time=00:01:44.35 bitrate=N/A speed=12.7x    frame= 2656 fps=303 q=-0.0 size=N/A time=00:01:50.77 bitrate=N/A speed=12.6x    frame= 2831 fps=304 q=-0.0 size=N/A time=00:01:58.07 bitrate=N/A speed=12.7x    frame= 2995 fps=305 q=-0.0 size=N/A time=00:02:04.91 bitrate=N/A speed=12.7x    frame= 3189 fps=309 q=-0.0 size=N/A time=00:02:13.00 bitrate=N/A speed=12.9x    frame= 3380 fps=312 q=-0.0 size=N/A time=00:02:20.97 bitrate=N/A speed=  13x    frame= 3524 fps=310 q=-0.0 size=N/A time=00:02:26.98 bitrate=N/A speed=12.9x    frame= 3713 fps=313 q=-0.0 size=N/A time=00:02:34.86 bitrate=N/A speed=  13x    frame= 3907 fps=315 q=-0.0 size=N/A time=00:02:42.95 bitrate=N/A speed=13.1x    frame= 4088 fps=317 q=-0.0 size=N/A time=00:02:50.50 bitrate=N/A speed=13.2x    frame= 4281 fps=319 q=-0.0 size=N/A time=00:02:58.55 bitrate=N/A speed=13.3x    frame= 4474 fps=321 q=-0.0 size=N/A time=00:03:06.60 bitrate=N/A speed=13.4x    frame= 4660 fps=322 q=-0.0 size=N/A time=00:03:14.36 bitrate=N/A speed=13.4x    frame= 4844 fps=324 q=-0.0 size=N/A time=00:03:22.03 bitrate=N/A speed=13.5x    frame= 5029 fps=325 q=-0.0 size=N/A time=00:03:29.75 bitrate=N/A speed=13.5x    frame= 5218 fps=326 q=-0.0 size=N/A time=00:03:37.63 bitrate=N/A speed=13.6x    frame= 5407 fps=328 q=-0.0 size=N/A time=00:03:45.51 bitrate=N/A speed=13.7x    frame= 5596 fps=328 q=-0.0 size=N/A time=00:03:53.39 bitrate=N/A speed=13.7x    frame= 5776 fps=329 q=-0.0 size=N/A time=00:04:00.90 bitrate=N/A speed=13.7x    frame= 5954 fps=330 q=-0.0 size=N/A time=00:04:08.33 bitrate=N/A speed=13.8x    frame= 6140 fps=330 q=-0.0 size=N/A time=00:04:16.08 bitrate=N/A speed=13.8x    frame= 6320 fps=331 q=-0.0 size=N/A time=00:04:23.59 bitrate=N/A speed=13.8x    frame= 6509 fps=332 q=-0.0 size=N/A time=00:04:31.47 bitrate=N/A speed=13.8x    frame= 6706 fps=333 q=-0.0 size=N/A time=00:04:39.69 bitrate=N/A speed=13.9x    frame= 6865 fps=333 q=-0.0 size=N/A time=00:04:46.32 bitrate=N/A speed=13.9x    frame= 7048 fps=333 q=-0.0 size=N/A time=00:04:53.96 bitrate=N/A speed=13.9x    frame= 7222 fps=333 q=-0.0 size=N/A time=00:05:01.21 bitrate=N/A speed=13.9x    frame= 7411 fps=334 q=-0.0 size=N/A time=00:05:09.10 bitrate=N/A speed=13.9x    frame= 7589 fps=334 q=-0.0 size=N/A time=00:05:16.52 bitrate=N/A speed=13.9x    frame= 7760 fps=334 q=-0.0 size=N/A time=00:05:23.65 bitrate=N/A speed=13.9x    frame= 7936 fps=334 q=-0.0 size=N/A time=00:05:30.99 bitrate=N/A speed=13.9x    frame= 8119 fps=335 q=-0.0 size=N/A time=00:05:38.62 bitrate=N/A speed=  14x    frame= 8300 fps=335 q=-0.0 size=N/A time=00:05:46.17 bitrate=N/A speed=  14x    frame= 8443 fps=334 q=-0.0 size=N/A time=00:05:52.14 bitrate=N/A speed=13.9x    frame= 8621 fps=334 q=-0.0 size=N/A time=00:05:59.56 bitrate=N/A speed=13.9x    frame= 8803 fps=334 q=-0.0 size=N/A time=00:06:07.15 bitrate=N/A speed=  14x    frame= 8984 fps=335 q=-0.0 size=N/A time=00:06:14.70 bitrate=N/A speed=  14x    frame= 9172 fps=335 q=-0.0 size=N/A time=00:06:22.54 bitrate=N/A speed=  14x    frame= 9358 fps=336 q=-0.0 size=N/A time=00:06:30.30 bitrate=N/A speed=  14x    frame= 9545 fps=336 q=-0.0 size=N/A time=00:06:38.10 bitrate=N/A speed=  14x    frame= 9733 fps=337 q=-0.0 size=N/A time=00:06:45.94 bitrate=N/A speed=14.1x    frame= 9911 fps=337 q=-0.0 size=N/A time=00:06:53.37 bitrate=N/A speed=14.1x    frame=10102 fps=338 q=-0.0 size=N/A time=00:07:01.33 bitrate=N/A speed=14.1x    frame=10289 fps=338 q=-0.0 size=N/A time=00:07:09.13 bitrate=N/A speed=14.1x    frame=10463 fps=338 q=-0.0 size=N/A time=00:07:16.39 bitrate=N/A speed=14.1x    frame=10643 fps=338 q=-0.0 size=N/A time=00:07:23.90 bitrate=N/A speed=14.1x    frame=10824 fps=338 q=-0.0 size=N/A time=00:07:31.45 bitrate=N/A speed=14.1x    frame=10984 fps=338 q=-0.0 size=N/A time=00:07:38.12 bitrate=N/A speed=14.1x    frame=11156 fps=338 q=-0.0 size=N/A time=00:07:45.29 bitrate=N/A speed=14.1x    frame=11331 fps=338 q=-0.0 size=N/A time=00:07:52.59 bitrate=N/A speed=14.1x    frame=11510 fps=338 q=-0.0 size=N/A time=00:08:00.06 bitrate=N/A speed=14.1x    frame=11685 fps=338 q=-0.0 size=N/A time=00:08:07.36 bitrate=N/A speed=14.1x    frame=11863 fps=338 q=-0.0 size=N/A time=00:08:14.78 bitrate=N/A speed=14.1x    frame=12056 fps=339 q=-0.0 size=N/A time=00:08:22.83 bitrate=N/A speed=14.1x    frame=12251 fps=339 q=-0.0 size=N/A time=00:08:30.96 bitrate=N/A speed=14.1x    frame=12440 fps=340 q=-0.0 size=N/A time=00:08:38.85 bitrate=N/A speed=14.2x    frame=12635 fps=340 q=-0.0 size=N/A time=00:08:46.98 bitrate=N/A speed=14.2x    frame=12830 fps=341 q=-0.0 size=N/A time=00:08:55.11 bitrate=N/A speed=14.2x    frame=13005 fps=341 q=-0.0 size=N/A time=00:09:02.41 bitrate=N/A speed=14.2x    frame=13186 fps=341 q=-0.0 size=N/A time=00:09:09.96 bitrate=N/A speed=14.2x    frame=13340 fps=340 q=-0.0 size=N/A time=00:09:16.38 bitrate=N/A speed=14.2x    frame=13503 fps=340 q=-0.0 size=N/A time=00:09:23.18 bitrate=N/A speed=14.2x    frame=13672 fps=340 q=-0.0 size=N/A time=00:09:30.23 bitrate=N/A speed=14.2x    frame=13845 fps=340 q=-0.0 size=N/A time=00:09:37.45 bitrate=N/A speed=14.2x    frame=14026 fps=340 q=-0.0 size=N/A time=00:09:45.00 bitrate=N/A speed=14.2x    frame=14189 fps=339 q=-0.0 size=N/A time=00:09:51.79 bitrate=N/A speed=14.2x    frame=14371 fps=339 q=-0.0 size=N/A time=00:09:59.39 bitrate=N/A speed=14.2x    frame=14549 fps=340 q=-0.0 size=N/A time=00:10:06.81 bitrate=N/A speed=14.2x    frame=14723 fps=340 q=-0.0 size=N/A time=00:10:14.07 bitrate=N/A speed=14.2x    frame=14899 fps=340 q=-0.0 size=N/A time=00:10:21.41 bitrate=N/A speed=14.2x    frame=15074 fps=340 q=-0.0 size=N/A time=00:10:28.71 bitrate=N/A speed=14.2x    frame=15225 fps=339 q=-0.0 size=N/A time=00:10:35.00 bitrate=N/A speed=14.1x    frame=15398 fps=339 q=-0.0 size=N/A time=00:10:42.22 bitrate=N/A speed=14.1x    frame=15580 fps=339 q=-0.0 size=N/A time=00:10:49.81 bitrate=N/A speed=14.1x    frame=15745 fps=339 q=-0.0 size=N/A time=00:10:56.69 bitrate=N/A speed=14.1x    frame=15937 fps=339 q=-0.0 size=N/A time=00:11:04.70 bitrate=N/A speed=14.2x    frame=16118 fps=339 q=-0.0 size=N/A time=00:11:12.25 bitrate=N/A speed=14.2x    frame=16306 fps=340 q=-0.0 size=N/A time=00:11:20.09 bitrate=N/A speed=14.2x    frame=16485 fps=340 q=-0.0 size=N/A time=00:11:27.56 bitrate=N/A speed=14.2x    frame=16671 fps=340 q=-0.0 size=N/A time=00:11:35.31 bitrate=N/A speed=14.2x    frame=16855 fps=340 q=-0.0 size=N/A time=00:11:42.99 bitrate=N/A speed=14.2x    frame=17032 fps=340 q=-0.0 size=N/A time=00:11:50.37 bitrate=N/A speed=14.2x    frame=17177 fps=340 q=-0.0 size=N/A time=00:11:56.42 bitrate=N/A speed=14.2x    frame=17364 fps=340 q=-0.0 size=N/A time=00:12:04.22 bitrate=N/A speed=14.2x    frame=17548 fps=340 q=-0.0 size=N/A time=00:12:11.89 bitrate=N/A speed=14.2x    frame=17727 fps=340 q=-0.0 size=N/A time=00:12:19.36 bitrate=N/A speed=14.2x    frame=17912 fps=340 q=-0.0 size=N/A time=00:12:27.07 bitrate=N/A speed=14.2x    frame=18091 fps=340 q=-0.0 size=N/A time=00:12:34.54 bitrate=N/A speed=14.2x    frame=18257 fps=340 q=-0.0 size=N/A time=00:12:41.46 bitrate=N/A speed=14.2x    frame=18430 fps=340 q=-0.0 size=N/A time=00:12:48.68 bitrate=N/A speed=14.2x    frame=18617 fps=340 q=-0.0 size=N/A time=00:12:56.48 bitrate=N/A speed=14.2x    frame=18805 fps=340 q=-0.0 size=N/A time=00:13:04.32 bitrate=N/A speed=14.2x    frame=18975 fps=340 q=-0.0 size=N/A time=00:13:11.41 bitrate=N/A speed=14.2x    frame=19160 fps=341 q=-0.0 size=N/A time=00:13:19.13 bitrate=N/A speed=14.2x    frame=19357 fps=341 q=-0.0 size=N/A time=00:13:27.34 bitrate=N/A speed=14.2x    frame=19512 fps=341 q=-0.0 size=N/A time=00:13:33.81 bitrate=N/A speed=14.2x    frame=19698 fps=341 q=-0.0 size=N/A time=00:13:41.57 bitrate=N/A speed=14.2x    frame=19884 fps=341 q=-0.0 size=N/A time=00:13:49.32 bitrate=N/A speed=14.2x    frame=20076 fps=341 q=-0.0 size=N/A time=00:13:57.33 bitrate=N/A speed=14.2x    frame=20255 fps=341 q=-0.0 size=N/A time=00:14:04.80 bitrate=N/A speed=14.2x    frame=20436 fps=341 q=-0.0 size=N/A time=00:14:12.35 bitrate=N/A speed=14.2x    frame=20613 fps=341 q=-0.0 size=N/A time=00:14:19.73 bitrate=N/A speed=14.2x    frame=20790 fps=341 q=-0.0 size=N/A time=00:14:27.11 bitrate=N/A speed=14.2x    frame=20968 fps=341 q=-0.0 size=N/A time=00:14:34.54 bitrate=N/A speed=14.2x    frame=21159 fps=342 q=-0.0 size=N/A time=00:14:42.50 bitrate=N/A speed=14.2x    frame=21345 fps=342 q=-0.0 size=N/A time=00:14:50.26 bitrate=N/A speed=14.3x    frame=21532 fps=342 q=-0.0 size=N/A time=00:14:58.06 bitrate=N/A speed=14.3x    frame=21719 fps=342 q=-0.0 size=N/A time=00:15:05.86 bitrate=N/A speed=14.3x    frame=21907 fps=342 q=-0.0 size=N/A time=00:15:13.70 bitrate=N/A speed=14.3x    frame=22083 fps=342 q=-0.0 size=N/A time=00:15:21.04 bitrate=N/A speed=14.3x    frame=22263 fps=342 q=-0.0 size=N/A time=00:15:28.55 bitrate=N/A speed=14.3x    frame=22448 fps=343 q=-0.0 size=N/A time=00:15:36.26 bitrate=N/A speed=14.3x    frame=22638 fps=343 q=-0.0 size=N/A time=00:15:44.19 bitrate=N/A speed=14.3x    frame=22816 fps=343 q=-0.0 size=N/A time=00:15:51.61 bitrate=N/A speed=14.3x    frame=22996 fps=343 q=-0.0 size=N/A time=00:15:59.12 bitrate=N/A speed=14.3x    frame=23192 fps=343 q=-0.0 size=N/A time=00:16:07.29 bitrate=N/A speed=14.3x    frame=23379 fps=343 q=-0.0 size=N/A time=00:16:15.09 bitrate=N/A speed=14.3x    frame=23568 fps=343 q=-0.0 size=N/A time=00:16:22.98 bitrate=N/A speed=14.3x    frame=23758 fps=344 q=-0.0 size=N/A time=00:16:30.90 bitrate=N/A speed=14.3x    frame=23943 fps=344 q=-0.0 size=N/A time=00:16:38.62 bitrate=N/A speed=14.3x    frame=24111 fps=344 q=-0.0 size=N/A time=00:16:45.62 bitrate=N/A speed=14.3x    frame=24297 fps=344 q=-0.0 size=N/A time=00:16:53.38 bitrate=N/A speed=14.3x    frame=24463 fps=343 q=-0.0 size=N/A time=00:17:00.31 bitrate=N/A speed=14.3x    frame=24650 fps=344 q=-0.0 size=N/A time=00:17:08.11 bitrate=N/A speed=14.3x    frame=24842 fps=344 q=-0.0 size=N/A time=00:17:16.11 bitrate=N/A speed=14.3x    frame=25023 fps=344 q=-0.0 size=N/A time=00:17:23.66 bitrate=N/A speed=14.3x    frame=25217 fps=344 q=-0.0 size=N/A time=00:17:31.75 bitrate=N/A speed=14.4x    frame=25408 fps=344 q=-0.0 size=N/A time=00:17:39.72 bitrate=N/A speed=14.4x    frame=25583 fps=344 q=-0.0 size=N/A time=00:17:47.02 bitrate=N/A speed=14.4x    frame=25763 fps=344 q=-0.0 size=N/A time=00:17:54.53 bitrate=N/A speed=14.4x    frame=25964 fps=345 q=-0.0 size=N/A time=00:18:02.91 bitrate=N/A speed=14.4x    frame=26152 fps=345 q=-0.0 size=N/A time=00:18:10.75 bitrate=N/A speed=14.4x    frame=26338 fps=345 q=-0.0 size=N/A time=00:18:18.51 bitrate=N/A speed=14.4x    frame=26527 fps=345 q=-0.0 size=N/A time=00:18:26.39 bitrate=N/A speed=14.4x    frame=26714 fps=345 q=-0.0 size=N/A time=00:18:34.19 bitrate=N/A speed=14.4x    frame=26898 fps=345 q=-0.0 size=N/A time=00:18:41.87 bitrate=N/A speed=14.4x    frame=27042 fps=345 q=-0.0 size=N/A time=00:18:47.87 bitrate=N/A speed=14.4x    frame=27210 fps=345 q=-0.0 size=N/A time=00:18:54.88 bitrate=N/A speed=14.4x    frame=27401 fps=345 q=-0.0 size=N/A time=00:19:02.85 bitrate=N/A speed=14.4x    frame=27588 fps=345 q=-0.0 size=N/A time=00:19:10.64 bitrate=N/A speed=14.4x    frame=27775 fps=345 q=-0.0 size=N/A time=00:19:18.44 bitrate=N/A speed=14.4x    frame=27951 fps=345 q=-0.0 size=N/A time=00:19:25.78 bitrate=N/A speed=14.4x    frame=28121 fps=345 q=-0.0 size=N/A time=00:19:32.88 bitrate=N/A speed=14.4x    frame=28291 fps=345 q=-0.0 size=N/A time=00:19:39.97 bitrate=N/A speed=14.4x    frame=28458 fps=345 q=-0.0 size=N/A time=00:19:46.93 bitrate=N/A speed=14.4x    frame=28640 fps=345 q=-0.0 size=N/A time=00:19:54.52 bitrate=N/A speed=14.4x    frame=28806 fps=344 q=-0.0 size=N/A time=00:20:01.45 bitrate=N/A speed=14.4x    frame=28963 fps=344 q=-0.0 size=N/A time=00:20:07.99 bitrate=N/A speed=14.4x    frame=29110 fps=344 q=-0.0 size=N/A time=00:20:14.12 bitrate=N/A speed=14.3x    frame=29251 fps=343 q=-0.0 size=N/A time=00:20:19.96 bitrate=N/A speed=14.3x    frame=29420 fps=343 q=-0.0 size=N/A time=00:20:27.05 bitrate=N/A speed=14.3x    frame=29578 fps=343 q=-0.0 size=N/A time=00:20:33.64 bitrate=N/A speed=14.3x    frame=29733 fps=343 q=-0.0 size=N/A time=00:20:40.11 bitrate=N/A speed=14.3x    frame=29906 fps=343 q=-0.0 size=N/A time=00:20:47.32 bitrate=N/A speed=14.3x    frame=30056 fps=343 q=-0.0 size=N/A time=00:20:53.58 bitrate=N/A speed=14.3x    frame=30224 fps=342 q=-0.0 size=N/A time=00:21:00.59 bitrate=N/A speed=14.3x    frame=30381 fps=342 q=-0.0 size=N/A time=00:21:07.14 bitrate=N/A speed=14.3x    frame=30542 fps=342 q=-0.0 size=N/A time=00:21:13.85 bitrate=N/A speed=14.3x    frame=30715 fps=342 q=-0.0 size=N/A time=00:21:21.07 bitrate=N/A speed=14.3x    frame=30905 fps=342 q=-0.0 size=N/A time=00:21:28.99 bitrate=N/A speed=14.3x    frame=31061 fps=342 q=-0.0 size=N/A time=00:21:35.50 bitrate=N/A speed=14.3x    frame=31235 fps=342 q=-0.0 size=N/A time=00:21:42.75 bitrate=N/A speed=14.3x    frame=31389 fps=342 q=-0.0 size=N/A time=00:21:49.18 bitrate=N/A speed=14.2x    frame=31528 fps=341 q=-0.0 size=N/A time=00:21:54.98 bitrate=N/A speed=14.2x    frame=31689 fps=341 q=-0.0 size=N/A time=00:22:01.69 bitrate=N/A speed=14.2x    frame=31838 fps=341 q=-0.0 size=N/A time=00:22:07.90 bitrate=N/A speed=14.2x    frame=31980 fps=340 q=-0.0 size=N/A time=00:22:13.83 bitrate=N/A speed=14.2x    frame=32155 fps=340 q=-0.0 size=N/A time=00:22:21.13 bitrate=N/A speed=14.2x    frame=32333 fps=340 q=-0.0 size=N/A time=00:22:28.55 bitrate=N/A speed=14.2x    frame=32502 fps=340 q=-0.0 size=N/A time=00:22:35.60 bitrate=N/A speed=14.2x    frame=32655 fps=340 q=-0.0 size=N/A time=00:22:41.98 bitrate=N/A speed=14.2x    frame=32805 fps=340 q=-0.0 size=N/A time=00:22:48.24 bitrate=N/A speed=14.2x    frame=32968 fps=340 q=-0.0 size=N/A time=00:22:55.04 bitrate=N/A speed=14.2x    frame=33145 fps=340 q=-0.0 size=N/A time=00:23:02.42 bitrate=N/A speed=14.2x    frame=33323 fps=340 q=-0.0 size=N/A time=00:23:09.84 bitrate=N/A speed=14.2x    frame=33477 fps=340 q=-0.0 size=N/A time=00:23:16.26 bitrate=N/A speed=14.2x    frame=33612 fps=339 q=-0.0 size=N/A time=00:23:21.90 bitrate=N/A speed=14.1x    frame=33743 fps=339 q=-0.0 size=N/A time=00:23:27.36 bitrate=N/A speed=14.1x    frame=33862 fps=338 q=-0.0 size=N/A time=00:23:32.32 bitrate=N/A speed=14.1x    frame=34007 fps=338 q=-0.0 size=N/A time=00:23:38.37 bitrate=N/A speed=14.1x    frame=34154 fps=338 q=-0.0 size=N/A time=00:23:44.50 bitrate=N/A speed=14.1x    frame=34292 fps=337 q=-0.0 size=N/A time=00:23:50.26 bitrate=N/A speed=14.1x    frame=34404 fps=337 q=-0.0 size=N/A time=00:23:54.93 bitrate=N/A speed=  14x    frame=34542 fps=336 q=-0.0 size=N/A time=00:24:00.68 bitrate=N/A speed=  14x    [Parsed_ssim_16 @ 000001db3391a900] SSIM Y:0.994172 (22.344771) U:0.993998 (22.217265) V:0.993605 (21.941421) All:0.994048 (22.253721)
[out#0/null @ 000001db267a8a00] video:14903KiB audio:271276KiB subtitle:0KiB other streams:0KiB global headers:0KiB muxing overhead: unknown
frame=34683 fps=336 q=-0.0 Lsize=N/A time=00:24:06.57 bitrate=N/A speed=  14x    
